<svg id="Camada_1" data-name="Camada 1" xmlns="http://www.w3.org/2000/svg" viewBox="0 0 200 200"><defs><style>.cls-1{fill:#d0e9fa;}.cls-2{fill:#fff;}.cls-3,.cls-4{fill:#3eb9bc;}.cls-3{stroke:#3eb9bc;stroke-miterlimit:10;stroke-width:9.29px;}</style></defs><path class="cls-1" d="M182.71,78.34a11.51,11.51,0,0,0-15.2-9.3c-6.2,2.1-17,3.29-17.47,13.21q2.29,18.87-2.26,32.54t-14.17,21.1a45.56,45.56,0,0,1-40.16,7.54,40.77,40.77,0,0,1-15.64-9.06,50.7,50.7,0,0,1-11.87-17,61.16,61.16,0,0,1-2.58-6.9,11.53,11.53,0,0,0-14-7.71Q44.69,104,40,105.3a11.69,11.69,0,0,0-7.79,15.15A93,93,0,0,0,36,129.94a73,73,0,0,0,18.13,24.55,66.74,66.74,0,0,0,26.7,14q15.48,4.23,34.15,2t32.6-9.91A65.89,65.89,0,0,0,170,140.6a73.28,73.28,0,0,0,11.79-28,106.82,106.82,0,0,0,.91-34.14Z"/><path class="cls-1" d="M102.34,173a83.88,83.88,0,0,1-22-2.8,68.93,68.93,0,0,1-27.41-14.37,75.14,75.14,0,0,1-18.58-25.15A95.77,95.77,0,0,1,30.45,121a13.86,13.86,0,0,1,.85-10.89,13.1,13.1,0,0,1,8.18-6.58q4.73-1.31,9.46-2.55a13.3,13.3,0,0,1,16.15,8.92,58.12,58.12,0,0,0,2.5,6.7A49.17,49.17,0,0,0,79,133a39.21,39.21,0,0,0,15,8.67,43.81,43.81,0,0,0,38.53-7.24c6.09-4.73,10.65-11.54,13.55-20.25s3.68-19.48,2.18-31.74c.4-9.94,9.13-12.4,15.5-14.19,1.14-.32,2.22-.63,3.18-1a13.55,13.55,0,0,1,11.56,1.36,13,13,0,0,1,6,9.41v.13a109.2,109.2,0,0,1-.93,34.76,75.12,75.12,0,0,1-12.08,28.66,67.92,67.92,0,0,1-23.07,20.46c-9.38,5.17-20.57,8.58-33.26,10.13A107.26,107.26,0,0,1,102.34,173ZM52.39,104.17a9.55,9.55,0,0,0-2.52.34c-3.14.83-6.29,1.68-9.43,2.54a9.53,9.53,0,0,0-5.94,4.78,10.2,10.2,0,0,0-.62,8,89.9,89.9,0,0,0,3.74,9.31,71.41,71.41,0,0,0,17.68,24,65.22,65.22,0,0,0,26,13.6c10,2.75,21.3,3.39,33.46,1.9s23-4.75,31.94-9.7a64.31,64.31,0,0,0,21.86-19.37,71.81,71.81,0,0,0,11.5-27.29,106.17,106.17,0,0,0,.89-33.57l1.77-.36-1.79.22a9.43,9.43,0,0,0-4.37-6.82,9.9,9.9,0,0,0-8.46-1c-1,.35-2.16.67-3.37,1-5.89,1.66-12.58,3.54-12.87,10.56,1.55,12.51.76,23.73-2.36,33s-8.09,16.79-14.77,22a47.41,47.41,0,0,1-41.79,7.84,42.79,42.79,0,0,1-16.33-9.45,52.56,52.56,0,0,1-12.31-17.59A61.7,61.7,0,0,1,61.63,111,9.66,9.66,0,0,0,52.39,104.17Z"/><path class="cls-2" d="M175.3,70.93a11.52,11.52,0,0,0-15.21-9.3c-6.19,2.1-17,3.29-17.46,13.2q2.3,18.89-2.27,32.55t-14.16,21.1A45.51,45.51,0,0,1,86,136a40.74,40.74,0,0,1-15.64-9,50.66,50.66,0,0,1-11.87-17,57.53,57.53,0,0,1-2.58-6.9,11.52,11.52,0,0,0-14-7.71q-4.74,1.25-9.45,2.54A11.69,11.69,0,0,0,24.76,113a93.85,93.85,0,0,0,3.8,9.49A73,73,0,0,0,46.7,147.08a66.74,66.74,0,0,0,26.7,14q15.48,4.22,34.15,2t32.6-9.92a65.85,65.85,0,0,0,22.47-19.91,73.34,73.34,0,0,0,11.79-28,107.19,107.19,0,0,0,.91-34.15Z"/><path class="cls-2" d="M94.93,165.62a83.46,83.46,0,0,1-22-2.81,68.8,68.8,0,0,1-27.41-14.37A75,75,0,0,1,26.93,123.3,95.77,95.77,0,0,1,23,113.62a13.81,13.81,0,0,1,.85-10.89,13.1,13.1,0,0,1,8.18-6.58q4.73-1.31,9.46-2.56a13.32,13.32,0,0,1,16.15,8.93,57.25,57.25,0,0,0,2.5,6.69,49.1,49.1,0,0,0,11.43,16.41,39.17,39.17,0,0,0,15,8.66,43.73,43.73,0,0,0,38.52-7.23c6.1-4.73,10.66-11.54,13.56-20.25s3.68-19.48,2.18-31.75c.4-9.93,9.13-12.39,15.5-14.19,1.14-.31,2.22-.62,3.18-1a13.52,13.52,0,0,1,11.55,1.36,13,13,0,0,1,6,9.41v.12a109.26,109.26,0,0,1-.93,34.77,75.27,75.27,0,0,1-12.08,28.66A68.12,68.12,0,0,1,141,154.69c-9.38,5.17-20.57,8.58-33.26,10.13A107.26,107.26,0,0,1,94.93,165.62ZM45,96.76a10,10,0,0,0-2.52.33c-3.14.84-6.29,1.69-9.43,2.55a9.5,9.5,0,0,0-5.94,4.78,10.16,10.16,0,0,0-.62,8,90.77,90.77,0,0,0,3.73,9.31,71.78,71.78,0,0,0,17.68,24,65.36,65.36,0,0,0,26,13.6c10,2.75,21.31,3.39,33.46,1.9s23-4.75,32-9.7a64.41,64.41,0,0,0,21.86-19.37,71.88,71.88,0,0,0,11.5-27.29,105.91,105.91,0,0,0,.88-33.57l1.78-.36-1.8.22a9.37,9.37,0,0,0-4.36-6.82,9.9,9.9,0,0,0-8.46-1c-1,.35-2.17.67-3.37,1-5.9,1.66-12.58,3.54-12.87,10.56,1.54,12.51.76,23.73-2.36,33s-8.1,16.78-14.77,22a47.43,47.43,0,0,1-41.8,7.84,42.86,42.86,0,0,1-16.33-9.45,52.69,52.69,0,0,1-12.3-17.6,60.83,60.83,0,0,1-2.66-7.11A9.67,9.67,0,0,0,45,96.76Z"/><path class="cls-3" d="M168.14,64.78a11.52,11.52,0,0,0-15.21-9.3c-6.19,2.1-17,3.29-17.46,13.21q2.29,18.89-2.26,32.54T119,122.34a45.59,45.59,0,0,1-40.16,7.53,40.87,40.87,0,0,1-15.64-9.05,50.74,50.74,0,0,1-11.87-17,60.44,60.44,0,0,1-2.58-6.9A11.53,11.53,0,0,0,34.84,89.2c-3.16.84-6.31,1.68-9.45,2.55a11.68,11.68,0,0,0-7.79,15.14,92.06,92.06,0,0,0,3.81,9.49,73.16,73.16,0,0,0,18.13,24.56,66.59,66.59,0,0,0,26.7,14q15.48,4.23,34.15,2T133,147A65.88,65.88,0,0,0,155.46,127a73.21,73.21,0,0,0,11.79-28,106.82,106.82,0,0,0,.91-34.14Z"/><path class="cls-4" d="M87.77,159.47a83.47,83.47,0,0,1-22-2.8A68.8,68.8,0,0,1,38.35,142.3a75,75,0,0,1-18.58-25.15,95.59,95.59,0,0,1-3.89-9.67,13.88,13.88,0,0,1,.85-10.9A13.09,13.09,0,0,1,24.91,90q4.72-1.31,9.46-2.56a13.3,13.3,0,0,1,16.15,8.93,57.25,57.25,0,0,0,2.5,6.69,49.09,49.09,0,0,0,11.43,16.4,39.19,39.19,0,0,0,15,8.67,43.82,43.82,0,0,0,38.52-7.23c6.1-4.73,10.66-11.55,13.56-20.25s3.68-19.48,2.18-31.75c.4-9.94,9.13-12.4,15.5-14.19,1.14-.32,2.22-.62,3.18-.95a13.45,13.45,0,0,1,11.55,1.36,13,13,0,0,1,6,9.41v.12A109.28,109.28,0,0,1,169,99.43a75.34,75.34,0,0,1-12.08,28.66,67.9,67.9,0,0,1-23.07,20.45c-9.38,5.18-20.57,8.59-33.26,10.13A105.23,105.23,0,0,1,87.77,159.47ZM37.82,90.62A10,10,0,0,0,35.3,91c-3.14.83-6.29,1.68-9.43,2.54a9.53,9.53,0,0,0-5.94,4.78,10.18,10.18,0,0,0-.62,8,89.47,89.47,0,0,0,3.74,9.31,71.48,71.48,0,0,0,17.67,23.95,65.35,65.35,0,0,0,26,13.61c10,2.75,21.3,3.38,33.46,1.9s23-4.75,31.94-9.71A64.31,64.31,0,0,0,154,126a71.75,71.75,0,0,0,11.5-27.29,105.84,105.84,0,0,0,.88-33.56l1.78-.36-1.79.22A9.41,9.41,0,0,0,162,58.19a9.84,9.84,0,0,0-8.46-1c-1,.34-2.17.67-3.37,1-5.9,1.66-12.58,3.55-12.87,10.56,1.55,12.52.76,23.73-2.36,33s-8.1,16.79-14.77,22a47.38,47.38,0,0,1-41.8,7.83A42.86,42.86,0,0,1,62,122.15a52.54,52.54,0,0,1-12.3-17.59,61.52,61.52,0,0,1-2.66-7.11A9.65,9.65,0,0,0,37.82,90.62Z"/><path class="cls-4" d="M143.94,38c-10.82.71-18.33,1.17-24.23,3.74A40.35,40.35,0,0,0,110.54,47c-1.7,1.09-3.27,2.6-5.18,3.94a54.18,54.18,0,0,1-6,4.67,29.76,29.76,0,0,1-.22-8.05c.7-2.5,1.12-5.29,2.55-7.67A24.51,24.51,0,0,1,131.57,28C136.75,29.89,141.28,33.09,143.94,38Z"/><circle class="cls-4" cx="56.68" cy="62.57" r="10.34"/></svg>